DataType=double
version=3
OpenSimVersion=4.5
endheader
time	ground_force_1_vx	ground_force_1_vy	ground_force_1_vz	ground_force_1_px	ground_force_1_py	ground_force_1_pz	ground_moment_1_mx	ground_moment_1_my	ground_moment_1_mz	ground_force_2_vx	ground_force_2_vy	ground_force_2_vz	ground_force_2_px	ground_force_2_py	ground_force_2_pz	ground_moment_2_mx	ground_moment_2_my	ground_moment_2_mz
2	-39.55190127	622.137595	48.02234916	0.8258193015797898	0	0.4001713889645521	0	3.273819355352734	0	0	0	0	0.8049871033955318	0	0.7420771517268261	0	0	0
2.005	-37.48554071	618.4534768	47.01147431	0.8215827596131451	0	0.400481621131927	0	3.196939314002114	0	0	0	0	0.8049871033955318	0	0.7420771517268261	0	0	0
2.01	-35.2087058	615.7489495	45.8818354	0.8170110624950044	0	0.4008495562717691	0	3.090040398797437	0	0	0	0	0.8049871033955318	0	0.7420771517268261	0	0	0
2.015	-32.7022285	613.903989	44.6789399	0.8121467615614495	0	0.4012692084459961	0	2.960337111519424	0	0	0	0	0.8049871033955318	0	0.7420771517268261	0	0	0
2.02	-30.25170357	612.8415982	43.51960041	0.8071586940097849	0	0.4017113986895877	0	2.829544642988746	0	0	0	0	0.8049871033955318	0	0.7420771517268261	0	0	0
2.025	-27.92237168	612.4367136	42.46482222	0.8021900656834245	0	0.4021687025480675	0	2.720679507949135	0	0	0	0	0.8049871033955318	0	0.7420771517268261	0	0	0
2.03	-25.50765003	612.545038	41.43000396	0.7971868667949401	0	0.4026340183224465	0	2.611954204871526	0	0	0	0	0.8049871033955318	0	0.7420771517268261	0	0	0
2.035	-22.9596267	613.0162617	40.35312803	0.7919606236649047	0	0.4031260730063111	0	2.476983864703473	0	0	0	0	0.8049871033955318	0	0.7420771517268261	0	0	0
2.04	-20.43330123	613.7997121	39.27328347	0.786537580342939	0	0.4036207733520483	0	2.339697208980147	0	0	0	0	0.8049871033955318	0	0.7420771517268261	0	0	0
2.045	-17.97357277	614.8681682	38.32940504	0.7812660740242771	0	0.4040858171510876	0	2.221564689682817	0	0	0	0	0.8049871033955318	0	0.7420771517268261	0	0	0
2.05	-15.52918087	616.2276035	37.61018558	0.7762716470091112	0	0.4045048521866199	0	2.111745698726929	0	0	0	0	0.8049871033955318	0	0.7420771517268261	0	0	0
2.055	-13.08161361	617.8925733	37.02503551	0.7712769343876996	0	0.4048743093827259	0	2.025095092115038	0	0	0	0	0.8049871033955318	0	0.7420771517268261	0	0	0
2.06	-10.56697777	619.7865578	36.43277627	0.7661128591208288	0	0.4052257244746291	0	1.966012792135016	0	0	0	0	0.8049871033955318	0	0.7420771517268261	0	0	0
2.065	-7.904275548	621.8236596	35.77595995	0.7609555297740204	0	0.4055548022310499	0	1.909647986646715	0	0	0	0	0.8049871033955318	0	0.7420771517268261	0	0	0
2.07	-5.181294614	623.9348502	35.18374094	0.7559131937487171	0	0.4058530561299989	0	1.876599613222225	0	0	0	0	0.8049871033955318	0	0.7420771517268261	0	0	0
2.075	-2.508027028	626.0585328	34.77130786	0.7508672049496103	0	0.4061277736514113	0	1.857130828033382	0	0	0	0	0.8049871033955318	0	0.7420771517268261	0	0	0
2.08	0.234237902	628.0732313	34.47688049	0.7457325082025319	0	0.406418459252911	0	1.817776332264788	0	0	0	0	0.8049871033955318	0	0.7420771517268261	0	0	0
2.085	3.182274073	629.8938193	34.1611294	0.7405398938397152	0	0.4067535729575266	0	1.757803854649933	0	0	0	0	0.8049871033955318	0	0.7420771517268261	0	0	0
2.09	6.223954983	631.5748624	33.80992321	0.7353095276209851	0	0.4071104119928921	0	1.679158799450484	0	0	0	0	0.8049871033955318	0	0.7420771517268261	0	0	0
2.095	9.238464584999999	633.1739439	33.56931778	0.7301060590133972	0	0.4074729929675549	0	1.588044458141324	0	0	0	0	0.8049871033955318	0	0.7420771517268261	0	0	0
2.1	12.31535241	634.72104	33.51762885	0.7249879417956924	0	0.4078376975158433	0	1.469756053255063	0	0	0	0	0.8049871033955318	0	0.7420771517268261	0	0	0
2.105	15.53926577	636.2398194	33.58773218	0.7198387880052247	0	0.4082262283300174	0	1.314269683288454	0	0	0	0	0.8049871033955318	0	0.7420771517268261	0	0	0
2.11	18.85389797	637.8578291	33.63206221	0.7145047957605435	0	0.4086281263920218	0	1.1596182543191	0	0	0	0	0.8049871033955318	0	0.7420771517268261	0	0	0
2.115	22.22868984	639.7141076	33.60356005	0.7090307021307652	0	0.4090221533409641	0	1.031098941160492	0	0	0	0	0.8049871033955318	0	0.7420771517268261	0	0	0
2.12	25.69053951	641.8598776	33.60905581	0.7035401313249213	0	0.4094119851436665	0	0.9005952305352656	0	0	0	0	0.8049871033955318	0	0.7420771517268261	0	0	0
2.125	29.19723306	644.2999174	33.74438455	0.6979876787445343	0	0.4098020216090906	0	0.7683551299503888	0	0	0	0	0.8049871033955318	0	0.7420771517268261	0	0	0
2.13	32.71320688	647.0239994	34.00654774	0.6922680621383552	0	0.4102136850868557	0	0.6334951309193682	0	0	0	0	0.8049871033955318	0	0.7420771517268261	0	0	0
2.135	36.29397284	650.1072053	34.28886465	0.6864108085022904	0	0.4106285712427161	0	0.4779496284891089	0	0	0	0	0.8049871033955318	0	0.7420771517268261	0	0	0
2.14	39.94148492	653.5216684	34.55691585	0.6805161337160657	0	0.4110418097394093	0	0.3334370223764349	0	0	0	0	0.8049871033955318	0	0.7420771517268261	0	0	0
2.145	43.55567601	657.1526717	34.89562396	0.6746507568956154	0	0.4114656306854449	0	0.2007731012149474	0	0	0	0	0.8049871033955318	0	0.7420771517268261	0	0	0
2.15	47.09636456	660.9442311	35.36766676	0.6688496509646203	0	0.4118886058991242	0	0.06095437552799066	0	0	0	0	0.8049871033955318	0	0.7420771517268261	0	0	0
2.155	50.65395162	664.8386017	35.92060858	0.6631016783172126	0	0.412310370685077	0	-0.07989671584305302	0	0	0	0	0.8049871033955318	0	0.7420771517268261	0	0	0
2.16	54.31128687	668.7072418	36.39619508	0.6573796890893222	0	0.412740224477286	0	-0.2229165395187334	0	0	0	0	0.8049871033955318	0	0.7420771517268261	0	0	0
2.165	58.03397146	672.3906095	36.71325514	0.6517141440697127	0	0.4131941967917335	0	-0.3347411000038845	0	0	0	0	0.8049871033955318	0	0.7420771517268261	0	0	0
2.17	61.75977446	675.8696723	36.90212132	0.6461723365762417	0	0.413642709429065	0	-0.4079441497332219	0	0	0	0	0.8049871033955318	0	0.7420771517268261	0	0	0
2.175	65.51413759	679.1236709	37.04394448	0.6407276726499571	0	0.4140757574502893	0	-0.4859253198652951	0	0	0	0	0.8049871033955318	0	0.7420771517268261	0	0	0
2.18	69.38146841	682.0065876	37.11814824	0.6352829896954232	0	0.4145112946121586	0	-0.5835858412882269	0	0	0	0	0.8049871033955318	0	0.7420771517268261	0	0	0
2.185	73.37830167	684.3638979999999	37.05050002	0.629808106380394	0	0.414962447822069	0	-0.6949150662940138	0	0	0	0	0.8049871033955318	0	0.7420771517268261	0	0	0
